REM GENRE "Alt Metal"
REM DATE 2006
REM DISCID AA0C500D
REM COMMENT "ExactAudioCopy v0.99pb5"
PERFORMER "Three Days Grace"
TITLE "One-X"
FILE "Three Days Grace\One-X\01 - It's All Over.wav" WAVE
  TRACK 01 AUDIO
    TITLE "It's All Over"
    PERFORMER "Three Days Grace"
    INDEX 01 00:00:00
FILE "Three Days Grace\One-X\02 - Pain.wav" WAVE
  TRACK 02 AUDIO
    TITLE "Pain"
    PERFORMER "Three Days Grace"
    INDEX 01 00:00:00
FILE "Three Days Grace\One-X\03 - Animal I Have Become.wav" WAVE
  TRACK 03 AUDIO
    TITLE "Animal I Have Become"
    PERFORMER "Three Days Grace"
    INDEX 01 00:00:00
FILE "Three Days Grace\One-X\04 - Never Too Late.wav" WAVE
  TRACK 04 AUDIO
    TITLE "Never Too Late"
    PERFORMER "Three Days Grace"
    INDEX 01 00:00:00
FILE "Three Days Grace\One-X\05 - On My Own.wav" WAVE
  TRACK 05 AUDIO
    TITLE "On My Own"
    PERFORMER "Three Days Grace"
    INDEX 01 00:00:00
FILE "Three Days Grace\One-X\06 - Riot.wav" WAVE
  TRACK 06 AUDIO
    TITLE "Riot"
    PERFORMER "Three Days Grace"
    INDEX 01 00:00:00
FILE "Three Days Grace\One-X\07 - Get Out Alive.wav" WAVE
  TRACK 07 AUDIO
    TITLE "Get Out Alive"
    PERFORMER "Three Days Grace"
    INDEX 01 00:00:00
FILE "Three Days Grace\One-X\08 - Let It Die.wav" WAVE
  TRACK 08 AUDIO
    TITLE "Let It Die"
    PERFORMER "Three Days Grace"
    INDEX 01 00:00:00
FILE "Three Days Grace\One-X\09 - Over and Over.wav" WAVE
  TRACK 09 AUDIO
    TITLE "Over and Over"
    PERFORMER "Three Days Grace"
    INDEX 01 00:00:00
FILE "Three Days Grace\One-X\10 - Time of Dying.wav" WAVE
  TRACK 10 AUDIO
    TITLE "Time of Dying"
    PERFORMER "Three Days Grace"
    INDEX 01 00:00:00
  TRACK 11 AUDIO
    TITLE "Gone Forever"
    PERFORMER "Three Days Grace"
    INDEX 00 03:06:28
FILE "Three Days Grace\One-X\11 - Gone Forever.wav" WAVE
    INDEX 01 00:00:00
FILE "Three Days Grace\One-X\12 - One-X.wav" WAVE
  TRACK 12 AUDIO
    TITLE "One-X"
    PERFORMER "Three Days Grace"
    INDEX 01 00:00:00
  TRACK 13 MODEx/2xxx
    TITLE "Blank"
    PERFORMER "Three Days Grace"
    INDEX 00 04:46:20
